<?xml version="1.0" encoding="UTF-8" standalone="no"?>
<!-- Created with Inkscape (http://www.inkscape.org/) -->

<svg
   xmlns:dc="http://purl.org/dc/elements/1.1/"
   xmlns:cc="http://creativecommons.org/ns#"
   xmlns:rdf="http://www.w3.org/1999/02/22-rdf-syntax-ns#"
   xmlns:svg="http://www.w3.org/2000/svg"
   xmlns="http://www.w3.org/2000/svg"
   version="1.1"
   width="100%"
   height="100%"
   viewBox="0 0 366.31203 325.86199"
   id="Layer_1"
   xml:space="preserve"><metadata
   id="metadata3069"><rdf:RDF><cc:Work
       rdf:about=""><dc:format>image/svg+xml</dc:format><dc:type
         rdf:resource="http://purl.org/dc/dcmitype/StillImage" /><dc:title></dc:title></cc:Work></rdf:RDF></metadata><defs
   id="defs3067" />
<g
   transform="translate(-212.84399,-143.06901)"
   id="g3029">
	<circle
   cx="287.23499"
   cy="217.46001"
   r="74.390999"
   id="circle3031"
   style="fill:#d2ccbb" />
	<circle
   cx="287.23499"
   cy="217.46001"
   r="54.852001"
   id="circle3033"
   style="fill:#ea8691" />
	<path
   d="m 242.853,228.035 c 0,-30.294 24.558,-54.852 54.852,-54.852 12.554,0 24.084,4.264 33.329,11.359 -10.008,-13.297 -25.875,-21.934 -43.803,-21.934 -30.294,0 -54.852,24.558 -54.852,54.852 0,17.74 8.458,33.468 21.526,43.497 -6.907,-9.176 -11.052,-20.551 -11.052,-32.922 z"
   id="path3035"
   style="fill:#da7889" />
	<path
   d="M 396,468.931 274.106,343.34 c -3.191,-3.284 -4.313,-8.058 -2.925,-12.424 l 17.862,-56.141 c 0.698,-2.191 1.926,-4.17 3.582,-5.765 l 54.476,-52.506 c 2.432,-2.342 5.675,-3.652 9.054,-3.652 H 396 v 256.079 z"
   id="path3037"
   style="fill:#d2ccbb" />
	<circle
   cx="504.76501"
   cy="217.46001"
   r="74.390999"
   id="circle3039"
   style="fill:#e6e3df" />
	<circle
   cx="504.76501"
   cy="217.46001"
   r="54.852001"
   id="circle3041"
   style="fill:#ea8691" />
	<path
   d="m 460.386,228.035 c 0,-30.294 24.557,-54.852 54.852,-54.852 12.554,0 24.084,4.264 33.33,11.359 -10.008,-13.297 -25.875,-21.934 -43.803,-21.934 -30.294,0 -54.852,24.558 -54.852,54.852 0,17.74 8.458,33.468 21.526,43.497 -6.907,-9.176 -11.053,-20.551 -11.053,-32.922 z"
   id="path3043"
   style="fill:#da7889" />
	<path
   d="m 362.107,413.071 c -0.257,0 -0.514,-0.049 -0.767,-0.151 -0.261,-0.102 -26.365,-10.62 -53.513,-12.86 -1.122,-0.09 -1.958,-1.077 -1.869,-2.199 0.094,-1.122 1.089,-1.934 2.203,-1.865 27.785,2.293 54.448,13.04 54.717,13.15 1.044,0.424 1.546,1.616 1.118,2.656 -0.322,0.792 -1.085,1.269 -1.889,1.269 z"
   id="path3045" />
	<path
   d="m 302.38,422.904 c -0.971,0 -1.832,-0.698 -2.007,-1.685 -0.192,-1.11 0.547,-2.166 1.656,-2.362 23.223,-4.084 58.801,-0.188 60.302,-0.02 1.118,0.126 1.926,1.134 1.799,2.256 -0.127,1.122 -1.11,1.938 -2.256,1.799 -0.363,-0.045 -36.496,-4.003 -59.144,-0.02 -0.113,0.024 -0.231,0.032 -0.35,0.032 z"
   id="path3047" />
	<path
   d="m 307.994,452.341 c -0.69,0 -1.367,-0.351 -1.75,-0.987 -0.583,-0.963 -0.269,-2.22 0.694,-2.803 23.746,-14.296 53.509,-20.396 54.762,-20.653 1.106,-0.224 2.179,0.494 2.403,1.599 0.22,1.106 -0.494,2.179 -1.599,2.403 -0.302,0.061 -30.339,6.222 -53.464,20.147 -0.323,0.197 -0.687,0.294 -1.046,0.294 z"
   id="path3049" />
	<path
   d="M 396,468.931 517.894,343.345 c 3.191,-3.284 4.313,-8.058 2.925,-12.424 L 502.957,274.78 c -0.698,-2.191 -1.926,-4.17 -3.582,-5.765 L 444.899,216.51 c -2.432,-2.342 -5.675,-3.652 -9.054,-3.652 H 396 v 256.073 z"
   id="path3051"
   style="fill:#e6e3df" />
	<path
   d="m 429.893,413.071 c -0.804,0 -1.567,-0.477 -1.889,-1.273 -0.424,-1.044 0.078,-2.236 1.118,-2.656 0.265,-0.106 26.932,-10.853 54.717,-13.15 1.118,-0.086 2.109,0.743 2.203,1.865 0.09,1.122 -0.743,2.109 -1.869,2.199 -27.144,2.244 -53.252,12.758 -53.513,12.86 -0.249,0.106 -0.51,0.155 -0.767,0.155 z"
   id="path3053" />
	<path
   d="m 489.62,422.904 c -0.118,0 -0.237,-0.008 -0.355,-0.033 -22.648,-3.97 -58.785,-0.02 -59.148,0.02 -1.114,0.131 -2.13,-0.677 -2.256,-1.799 -0.122,-1.118 0.681,-2.126 1.799,-2.256 1.501,-0.167 37.079,-4.06 60.306,0.02 1.11,0.196 1.852,1.253 1.656,2.362 -0.17,0.989 -1.031,1.686 -2.002,1.686 z"
   id="path3055" />
	<path
   d="m 484.006,452.341 c -0.359,0 -0.722,-0.094 -1.049,-0.29 -23.125,-13.925 -53.166,-20.09 -53.464,-20.147 -1.106,-0.224 -1.82,-1.297 -1.599,-2.403 0.224,-1.106 1.289,-1.82 2.403,-1.599 1.257,0.253 31.02,6.357 54.766,20.653 0.967,0.583 1.277,1.836 0.694,2.803 -0.385,0.633 -1.058,0.983 -1.751,0.983 z"
   id="path3057" />
	<path
   d="m 396,468.931 c 11.795,0 21.355,-12.497 21.355,-16.655 0,-4.158 -9.559,-16.655 -21.355,-16.655 -11.795,0 -21.355,12.497 -21.355,16.655 0,4.158 9.564,16.655 21.355,16.655 z"
   id="path3059"
   style="fill:#be3e48" />
	<circle
   cx="442.01001"
   cy="320.71201"
   r="16.202"
   id="circle3061"
   style="fill:#2a2828" />
	<circle
   cx="349.98999"
   cy="320.71201"
   r="16.202"
   id="circle3063"
   style="fill:#2a2828" />
</g>
</svg>