<?xml version="1.0" encoding="UTF-8" standalone="no"?>
<!-- Generator: Adobe Illustrator 17.1.0, SVG Export Plug-In . SVG Version: 6.00 Build 0)  -->

<svg
   xmlns:dc="http://purl.org/dc/elements/1.1/"
   xmlns:cc="http://creativecommons.org/ns#"
   xmlns:rdf="http://www.w3.org/1999/02/22-rdf-syntax-ns#"
   xmlns:svg="http://www.w3.org/2000/svg"
   xmlns="http://www.w3.org/2000/svg"
   xmlns:sodipodi="http://sodipodi.sourceforge.net/DTD/sodipodi-0.dtd"
   xmlns:inkscape="http://www.inkscape.org/namespaces/inkscape"
   version="1.1"
   id="Layer_1"
   x="0px"
   y="0px"
   viewBox="0 0 365.69999 379.005"
   enable-background="new 0 0 423 430.474"
   xml:space="preserve"
   inkscape:version="0.48.4 r9939"
   width="100%"
   height="100%"
   sodipodi:docname="rattic_logo_easter.svg"><metadata
     id="metadata3171"><rdf:RDF><cc:Work
         rdf:about=""><dc:format>image/svg+xml</dc:format><dc:type
           rdf:resource="http://purl.org/dc/dcmitype/StillImage" /></cc:Work></rdf:RDF></metadata><defs
     id="defs3169" /><sodipodi:namedview
     pagecolor="#ffffff"
     bordercolor="#666666"
     borderopacity="1"
     objecttolerance="10"
     gridtolerance="10"
     guidetolerance="10"
     inkscape:pageopacity="0"
     inkscape:pageshadow="2"
     inkscape:window-width="1600"
     inkscape:window-height="834"
     id="namedview3167"
     showgrid="false"
     fit-margin-top="0"
     fit-margin-left="0"
     fit-margin-right="0"
     fit-margin-bottom="0"
     inkscape:zoom="0.55752496"
     inkscape:cx="184.93728"
     inkscape:cy="192.485"
     inkscape:window-x="0"
     inkscape:window-y="27"
     inkscape:window-maximized="1"
     inkscape:current-layer="Layer_1" /><g
     id="g3115"
     transform="translate(-30.150002,-28.717)"><circle
       cx="104.415"
       cy="156.672"
       r="74.264999"
       id="circle3117"
       sodipodi:cx="104.415"
       sodipodi:cy="156.672"
       sodipodi:rx="74.264999"
       sodipodi:ry="74.264999"
       style="fill:#d2ccbb"
       d="m 178.68,156.672 c 0,41.01542 -33.24957,74.265 -74.265,74.265 -41.015426,0 -74.264998,-33.24958 -74.264998,-74.265 0,-41.01543 33.249572,-74.265002 74.264998,-74.265002 41.01543,0 74.265,33.249572 74.265,74.265002 z" /><circle
       cx="104.415"
       cy="156.672"
       r="54.761002"
       id="circle3119"
       sodipodi:cx="104.415"
       sodipodi:cy="156.672"
       sodipodi:rx="54.761002"
       sodipodi:ry="54.761002"
       style="fill:#ea8691"
       d="m 159.176,156.672 c 0,30.24366 -24.51733,54.761 -54.761,54.761 -30.243665,0 -54.761001,-24.51734 -54.761001,-54.761 0,-30.24367 24.517336,-54.761 54.761001,-54.761 30.24367,0 54.761,24.51733 54.761,54.761 z" /><path
       d="m 60.11,167.231 c 0,-30.244 24.517,-54.761 54.761,-54.761 12.532,0 24.044,4.256 33.272,11.338 -9.993,-13.274 -25.834,-21.896 -43.728,-21.896 -30.244,0 -54.761,24.517 -54.761,54.761 0,17.712 8.445,33.414 21.489,43.424 C 64.247,190.936 60.11,179.58 60.11,167.231 z"
       id="path3121"
       inkscape:connector-curvature="0"
       style="fill:#da7889" /><path
       d="M 213,407.722 91.309,282.343 c -3.184,-3.28 -4.306,-8.045 -2.92,-12.401 l 17.833,-56.046 c 0.695,-2.186 1.925,-4.164 3.576,-5.756 l 54.384,-52.416 c 2.427,-2.34 5.667,-3.647 9.039,-3.647 H 213 v 255.645 z"
       id="path3123"
       inkscape:connector-curvature="0"
       style="fill:#d2ccbb" /><circle
       cx="321.58499"
       cy="156.672"
       r="74.264999"
       id="circle3125"
       sodipodi:cx="321.58499"
       sodipodi:cy="156.672"
       sodipodi:rx="74.264999"
       sodipodi:ry="74.264999"
       style="fill:#e6e3df"
       d="m 395.84999,156.672 c 0,41.01542 -33.24957,74.265 -74.265,74.265 -41.01543,0 -74.265,-33.24958 -74.265,-74.265 0,-41.01543 33.24957,-74.265002 74.265,-74.265002 41.01543,0 74.265,33.249572 74.265,74.265002 z" /><circle
       cx="321.58499"
       cy="156.672"
       r="54.761002"
       id="circle3127"
       sodipodi:cx="321.58499"
       sodipodi:cy="156.672"
       sodipodi:rx="54.761002"
       sodipodi:ry="54.761002"
       style="fill:#ea8691"
       d="m 376.34599,156.672 c 0,30.24366 -24.51733,54.761 -54.761,54.761 -30.24366,0 -54.761,-24.51734 -54.761,-54.761 0,-30.24367 24.51734,-54.761 54.761,-54.761 30.24367,0 54.761,24.51733 54.761,54.761 z" /><path
       d="m 277.279,167.23 c 0,-30.244 24.517,-54.761 54.761,-54.761 12.532,0 24.044,4.256 33.272,11.338 -9.993,-13.274 -25.834,-21.896 -43.728,-21.896 -30.244,0 -54.761,24.517 -54.761,54.761 0,17.712 8.445,33.414 21.489,43.424 -6.896,-9.16 -11.033,-20.516 -11.033,-32.866 z"
       id="path3129"
       inkscape:connector-curvature="0"
       style="fill:#da7889" /><path
       d="m 179.163,351.956 c -0.257,0 -0.515,-0.048 -0.768,-0.151 -0.261,-0.103 -26.322,-10.601 -53.423,-12.84 -1.122,-0.091 -1.955,-1.074 -1.864,-2.196 0.095,-1.122 1.086,-1.929 2.198,-1.862 27.739,2.291 54.357,13.019 54.624,13.126 1.042,0.422 1.543,1.611 1.118,2.653 -0.32,0.792 -1.082,1.27 -1.885,1.27 z"
       id="path3131"
       inkscape:connector-curvature="0" /><path
       d="m 119.537,361.773 c -0.971,0 -1.83,-0.696 -2.005,-1.683 -0.193,-1.11 0.547,-2.164 1.655,-2.359 23.184,-4.077 58.701,-0.187 60.203,-0.02 1.118,0.127 1.921,1.134 1.798,2.251 -0.125,1.122 -1.108,1.933 -2.251,1.798 -0.362,-0.044 -36.436,-3.998 -59.045,-0.02 -0.12,0.025 -0.238,0.033 -0.355,0.033 z"
       id="path3133"
       inkscape:connector-curvature="0" /><path
       d="m 125.142,391.16 c -0.69,0 -1.364,-0.35 -1.746,-0.986 -0.581,-0.963 -0.27,-2.216 0.694,-2.796 23.705,-14.272 53.419,-20.362 54.672,-20.616 1.104,-0.223 2.176,0.493 2.399,1.595 0.221,1.102 -0.491,2.176 -1.595,2.399 -0.3,0.06 -30.288,6.213 -53.375,20.115 -0.329,0.194 -0.691,0.289 -1.049,0.289 z"
       id="path3135"
       inkscape:connector-curvature="0" /><path
       d="M 213,407.722 334.691,282.344 c 3.184,-3.28 4.306,-8.045 2.92,-12.401 l -17.833,-56.046 c -0.695,-2.186 -1.925,-4.164 -3.576,-5.756 l -54.384,-52.416 c -2.427,-2.34 -5.667,-3.647 -9.039,-3.647 H 213 v 255.644 z"
       id="path3137"
       inkscape:connector-curvature="0"
       style="fill:#e6e3df" /><path
       d="m 246.836,351.956 c -0.803,0 -1.565,-0.477 -1.885,-1.269 -0.426,-1.042 0.076,-2.232 1.118,-2.653 0.267,-0.107 26.887,-10.835 54.626,-13.126 1.118,-0.084 2.104,0.74 2.198,1.862 0.091,1.122 -0.742,2.104 -1.864,2.196 -27.1,2.239 -53.164,12.737 -53.425,12.84 -0.251,0.102 -0.512,0.15 -0.768,0.15 z"
       id="path3139"
       inkscape:connector-curvature="0" /><path
       d="m 306.464,361.773 c -0.117,0 -0.235,-0.008 -0.354,-0.032 -22.609,-3.962 -58.685,-0.02 -59.047,0.02 -1.112,0.131 -2.126,-0.676 -2.251,-1.798 -0.123,-1.118 0.68,-2.124 1.798,-2.251 1.5,-0.167 37.019,-4.053 60.205,0.02 1.108,0.195 1.848,1.249 1.655,2.359 -0.177,0.986 -1.036,1.682 -2.006,1.682 z"
       id="path3141"
       inkscape:connector-curvature="0" /><path
       d="m 300.859,391.16 c -0.358,0 -0.72,-0.095 -1.048,-0.29 -23.087,-13.902 -53.077,-20.056 -53.377,-20.115 -1.104,-0.223 -1.816,-1.297 -1.595,-2.399 0.223,-1.106 1.289,-1.818 2.399,-1.595 1.253,0.255 30.968,6.344 54.674,20.616 0.965,0.581 1.275,1.834 0.694,2.796 -0.383,0.637 -1.057,0.987 -1.747,0.987 z"
       id="path3143"
       inkscape:connector-curvature="0" /><path
       d="m 213.001,407.722 c 11.773,0 21.318,-12.476 21.318,-16.627 0,-4.151 -9.544,-16.626 -21.318,-16.626 -11.773,0 -21.318,12.475 -21.318,16.627 0,4.151 9.544,16.626 21.318,16.626 z"
       id="path3145"
       inkscape:connector-curvature="0"
       style="fill:#be3e48" /><circle
       cx="258.93399"
       cy="259.75101"
       r="16.173"
       id="circle3147"
       sodipodi:cx="258.93399"
       sodipodi:cy="259.75101"
       sodipodi:rx="16.173"
       sodipodi:ry="16.173"
       style="fill:#2a2828"
       d="m 275.10699,259.75101 c 0,8.9321 -7.2409,16.173 -16.173,16.173 -8.9321,0 -16.173,-7.2409 -16.173,-16.173 0,-8.9321 7.2409,-16.173 16.173,-16.173 8.9321,0 16.173,7.2409 16.173,16.173 z" /><circle
       cx="167.06599"
       cy="259.75101"
       r="16.173"
       id="circle3149"
       sodipodi:cx="167.06599"
       sodipodi:cy="259.75101"
       sodipodi:rx="16.173"
       sodipodi:ry="16.173"
       style="fill:#2a2828"
       d="m 183.23899,259.75101 c 0,8.9321 -7.24089,16.173 -16.173,16.173 -8.9321,0 -16.173,-7.2409 -16.173,-16.173 0,-8.9321 7.2409,-16.173 16.173,-16.173 8.93211,0 16.173,7.2409 16.173,16.173 z" /></g><path
     stroke-miterlimit="10"
     d="M 182.85,299.881"
     id="path3151"
     inkscape:connector-curvature="0"
     style="fill:none;stroke:#f4aeaf;stroke-miterlimit:10" /><path
     stroke-miterlimit="10"
     d="M 182.85,299.881"
     id="path3153"
     inkscape:connector-curvature="0"
     style="fill:none;stroke:#f4aeaf;stroke-miterlimit:10" /><path
     stroke-miterlimit="10"
     d="m 166.081,123.36 c 0,0 -73.129002,-3.092 -84.665002,-117.36 0,0 99.934002,55.588 84.665002,117.36 z"
     id="path3155"
     inkscape:connector-curvature="0"
     style="fill:#ededed;stroke:#ededed;stroke-width:12;stroke-linecap:round;stroke-linejoin:round;stroke-miterlimit:10" /><path
     stroke-miterlimit="10"
     d="m 203.561,125.191 c 0,0 -15.751,-48.816 11.071,-80.562 10.633,-12.585 15.242,-10.192 39.788,0.685 14.135,6.263 6.532,26.597 2.097,50.798 C 233.6,90.413 224.927,51.14 224.927,51.14 l 25.689,26.948 c -0.001,-10e-4 -12.565,26.936 -47.055,47.103 z"
     id="path3157"
     inkscape:connector-curvature="0"
     style="fill:#ededed;stroke:#ededed;stroke-width:12;stroke-linecap:round;stroke-linejoin:round;stroke-miterlimit:10" /><path
     d="m 224.927,51.139 c 0,0 4.47,26.879 12.496,36.312 0,0 -13.935,15.85 -33.862,37.74 0,0 -7.059,-47.326 21.366,-74.052 z"
     id="path3159"
     inkscape:connector-curvature="0"
     style="fill:#ea8691" /><path
     d="m 166.081,123.36 c 0,0 1.587,-56.273 -67.165002,-88.773 0,10e-4 3.329002,67.546 67.165002,88.773 z"
     id="path3161"
     inkscape:connector-curvature="0"
     style="fill:#ea8691" /><path
     stroke-miterlimit="10"
     d="m 70.649998,202.221 c 0,0 1.985,-8.295 7.851,-19.505 C 90.721998,159.363 119.788,123.361 182.85,123.361"
     id="path3163"
     inkscape:connector-curvature="0"
     style="fill:none;stroke:#ededed;stroke-width:12;stroke-linecap:round;stroke-linejoin:round;stroke-miterlimit:10" /><path
     stroke-miterlimit="10"
     d="m 295.05,202.221 c 0,0 -18.867,-78.86 -112.2,-78.86"
     id="path3165"
     inkscape:connector-curvature="0"
     style="fill:none;stroke:#ededed;stroke-width:12;stroke-linecap:round;stroke-linejoin:round;stroke-miterlimit:10" /></svg>